<mxfile host="Electron" agent="Mozilla/5.0 (Windows NT 10.0; Win64; x64) AppleWebKit/537.36 (KHTML, like Gecko) draw.io/27.0.9 Chrome/134.0.6998.205 Electron/35.4.0 Safari/537.36" version="27.0.9">
  <diagram name="Page-1" id="GcJh3NDyURUuWUflQFPY">
    <mxGraphModel dx="1042" dy="626" grid="1" gridSize="10" guides="1" tooltips="1" connect="1" arrows="1" fold="1" page="1" pageScale="1" pageWidth="850" pageHeight="1100" math="0" shadow="0">
      <root>
        <mxCell id="0" />
        <mxCell id="1" parent="0" />
        <mxCell id="_ElBcSgF51IK5JstbkPi-1" value="-" style="rounded=0;whiteSpace=wrap;html=1;" parent="1" vertex="1">
          <mxGeometry x="160" y="180" width="120" height="60" as="geometry" />
        </mxCell>
        <mxCell id="_ElBcSgF51IK5JstbkPi-2" value="" style="ellipse;whiteSpace=wrap;html=1;" parent="1" vertex="1">
          <mxGeometry x="380" y="170" width="120" height="80" as="geometry" />
        </mxCell>
        <mxCell id="_ElBcSgF51IK5JstbkPi-3" value="" style="endArrow=classic;html=1;rounded=0;" parent="1" edge="1">
          <mxGeometry width="50" height="50" relative="1" as="geometry">
            <mxPoint x="280" y="190" as="sourcePoint" />
            <mxPoint x="375" y="190" as="targetPoint" />
          </mxGeometry>
        </mxCell>
        <mxCell id="_ElBcSgF51IK5JstbkPi-4" value="" style="endArrow=classic;html=1;rounded=0;" parent="1" edge="1">
          <mxGeometry width="50" height="50" relative="1" as="geometry">
            <mxPoint x="507" y="190" as="sourcePoint" />
            <mxPoint x="625" y="190" as="targetPoint" />
            <Array as="points">
              <mxPoint x="497" y="190" />
            </Array>
          </mxGeometry>
        </mxCell>
        <mxCell id="_ElBcSgF51IK5JstbkPi-5" value="" style="endArrow=classic;html=1;rounded=0;" parent="1" edge="1">
          <mxGeometry width="50" height="50" relative="1" as="geometry">
            <mxPoint x="380" y="230" as="sourcePoint" />
            <mxPoint x="280" y="230" as="targetPoint" />
          </mxGeometry>
        </mxCell>
        <mxCell id="_ElBcSgF51IK5JstbkPi-6" value="" style="endArrow=classic;html=1;rounded=0;" parent="1" edge="1">
          <mxGeometry width="50" height="50" relative="1" as="geometry">
            <mxPoint x="625" y="230" as="sourcePoint" />
            <mxPoint x="500" y="230" as="targetPoint" />
          </mxGeometry>
        </mxCell>
        <mxCell id="_ElBcSgF51IK5JstbkPi-7" value="User" style="text;html=1;align=center;verticalAlign=middle;whiteSpace=wrap;rounded=0;" parent="1" vertex="1">
          <mxGeometry x="185" y="195" width="60" height="30" as="geometry" />
        </mxCell>
        <mxCell id="_ElBcSgF51IK5JstbkPi-8" value="&lt;div&gt;Task Flow&lt;/div&gt;" style="text;html=1;align=center;verticalAlign=middle;whiteSpace=wrap;rounded=0;" parent="1" vertex="1">
          <mxGeometry x="410" y="195" width="60" height="30" as="geometry" />
        </mxCell>
        <mxCell id="_ElBcSgF51IK5JstbkPi-9" value="Database" style="text;html=1;align=center;verticalAlign=middle;whiteSpace=wrap;rounded=0;" parent="1" vertex="1">
          <mxGeometry x="655" y="195" width="60" height="30" as="geometry" />
        </mxCell>
        <mxCell id="_ElBcSgF51IK5JstbkPi-10" value="" style="endArrow=none;html=1;rounded=0;" parent="1" edge="1">
          <mxGeometry width="50" height="50" relative="1" as="geometry">
            <mxPoint x="640" y="190" as="sourcePoint" />
            <mxPoint x="740" y="190" as="targetPoint" />
          </mxGeometry>
        </mxCell>
        <mxCell id="_ElBcSgF51IK5JstbkPi-11" value="" style="endArrow=none;html=1;rounded=0;" parent="1" edge="1">
          <mxGeometry width="50" height="50" relative="1" as="geometry">
            <mxPoint x="638" y="230" as="sourcePoint" />
            <mxPoint x="738" y="230" as="targetPoint" />
          </mxGeometry>
        </mxCell>
        <mxCell id="_ElBcSgF51IK5JstbkPi-14" value="" style="rounded=0;whiteSpace=wrap;html=1;" parent="1" vertex="1">
          <mxGeometry x="180" y="505" width="120" height="60" as="geometry" />
        </mxCell>
        <mxCell id="_ElBcSgF51IK5JstbkPi-15" value="User" style="text;html=1;align=center;verticalAlign=middle;whiteSpace=wrap;rounded=0;" parent="1" vertex="1">
          <mxGeometry x="210" y="515" width="60" height="30" as="geometry" />
        </mxCell>
        <mxCell id="_ElBcSgF51IK5JstbkPi-16" value="" style="endArrow=classic;html=1;rounded=0;" parent="1" edge="1">
          <mxGeometry width="50" height="50" relative="1" as="geometry">
            <mxPoint x="300" y="525" as="sourcePoint" />
            <mxPoint x="380" y="525" as="targetPoint" />
          </mxGeometry>
        </mxCell>
        <mxCell id="_ElBcSgF51IK5JstbkPi-17" value="" style="ellipse;whiteSpace=wrap;html=1;" parent="1" vertex="1">
          <mxGeometry x="380" y="495" width="120" height="80" as="geometry" />
        </mxCell>
        <mxCell id="_ElBcSgF51IK5JstbkPi-18" value="" style="endArrow=classic;html=1;rounded=0;" parent="1" edge="1">
          <mxGeometry width="50" height="50" relative="1" as="geometry">
            <mxPoint x="500" y="525" as="sourcePoint" />
            <mxPoint x="580" y="525" as="targetPoint" />
          </mxGeometry>
        </mxCell>
        <mxCell id="_ElBcSgF51IK5JstbkPi-19" value="" style="endArrow=none;html=1;rounded=0;" parent="1" edge="1">
          <mxGeometry width="50" height="50" relative="1" as="geometry">
            <mxPoint x="590" y="515" as="sourcePoint" />
            <mxPoint x="700" y="515" as="targetPoint" />
          </mxGeometry>
        </mxCell>
        <mxCell id="_ElBcSgF51IK5JstbkPi-20" value="" style="endArrow=none;html=1;rounded=0;" parent="1" edge="1">
          <mxGeometry width="50" height="50" relative="1" as="geometry">
            <mxPoint x="590" y="564" as="sourcePoint" />
            <mxPoint x="700" y="564" as="targetPoint" />
          </mxGeometry>
        </mxCell>
        <mxCell id="_ElBcSgF51IK5JstbkPi-21" value="" style="endArrow=classic;html=1;rounded=0;" parent="1" edge="1">
          <mxGeometry width="50" height="50" relative="1" as="geometry">
            <mxPoint x="380" y="545" as="sourcePoint" />
            <mxPoint x="300" y="545" as="targetPoint" />
          </mxGeometry>
        </mxCell>
        <mxCell id="_ElBcSgF51IK5JstbkPi-22" value="" style="endArrow=classic;html=1;rounded=0;" parent="1" edge="1">
          <mxGeometry width="50" height="50" relative="1" as="geometry">
            <mxPoint x="580" y="545" as="sourcePoint" />
            <mxPoint x="500" y="545" as="targetPoint" />
          </mxGeometry>
        </mxCell>
        <mxCell id="_ElBcSgF51IK5JstbkPi-23" value="Add List" style="text;html=1;align=center;verticalAlign=middle;whiteSpace=wrap;rounded=0;" parent="1" vertex="1">
          <mxGeometry x="410" y="520" width="60" height="30" as="geometry" />
        </mxCell>
        <mxCell id="_ElBcSgF51IK5JstbkPi-24" value="" style="ellipse;whiteSpace=wrap;html=1;" parent="1" vertex="1">
          <mxGeometry x="380" y="595" width="120" height="80" as="geometry" />
        </mxCell>
        <mxCell id="_ElBcSgF51IK5JstbkPi-25" value="" style="endArrow=classic;html=1;rounded=0;" parent="1" edge="1">
          <mxGeometry width="50" height="50" relative="1" as="geometry">
            <mxPoint x="290" y="625" as="sourcePoint" />
            <mxPoint x="379" y="625" as="targetPoint" />
          </mxGeometry>
        </mxCell>
        <mxCell id="_ElBcSgF51IK5JstbkPi-26" value="" style="endArrow=none;html=1;rounded=0;" parent="1" edge="1">
          <mxGeometry width="50" height="50" relative="1" as="geometry">
            <mxPoint x="290" y="625" as="sourcePoint" />
            <mxPoint x="290" y="565" as="targetPoint" />
          </mxGeometry>
        </mxCell>
        <mxCell id="_ElBcSgF51IK5JstbkPi-27" value="" style="endArrow=none;html=1;rounded=0;" parent="1" edge="1">
          <mxGeometry width="50" height="50" relative="1" as="geometry">
            <mxPoint x="280" y="645" as="sourcePoint" />
            <mxPoint x="380" y="645" as="targetPoint" />
          </mxGeometry>
        </mxCell>
        <mxCell id="_ElBcSgF51IK5JstbkPi-28" value="" style="endArrow=classic;html=1;rounded=0;" parent="1" edge="1">
          <mxGeometry width="50" height="50" relative="1" as="geometry">
            <mxPoint x="280" y="645" as="sourcePoint" />
            <mxPoint x="280" y="565" as="targetPoint" />
          </mxGeometry>
        </mxCell>
        <mxCell id="_ElBcSgF51IK5JstbkPi-29" value="Manage&lt;div&gt;List&lt;/div&gt;" style="text;html=1;align=center;verticalAlign=middle;whiteSpace=wrap;rounded=0;" parent="1" vertex="1">
          <mxGeometry x="410" y="620" width="60" height="30" as="geometry" />
        </mxCell>
        <mxCell id="_ElBcSgF51IK5JstbkPi-30" value="" style="endArrow=classic;html=1;rounded=0;" parent="1" edge="1">
          <mxGeometry width="50" height="50" relative="1" as="geometry">
            <mxPoint x="500" y="625" as="sourcePoint" />
            <mxPoint x="580" y="625" as="targetPoint" />
          </mxGeometry>
        </mxCell>
        <mxCell id="_ElBcSgF51IK5JstbkPi-31" value="" style="endArrow=none;html=1;rounded=0;" parent="1" edge="1">
          <mxGeometry width="50" height="50" relative="1" as="geometry">
            <mxPoint x="590" y="615" as="sourcePoint" />
            <mxPoint x="700" y="615" as="targetPoint" />
          </mxGeometry>
        </mxCell>
        <mxCell id="_ElBcSgF51IK5JstbkPi-32" value="" style="endArrow=none;html=1;rounded=0;" parent="1" edge="1">
          <mxGeometry width="50" height="50" relative="1" as="geometry">
            <mxPoint x="590" y="665" as="sourcePoint" />
            <mxPoint x="700" y="665" as="targetPoint" />
          </mxGeometry>
        </mxCell>
        <mxCell id="_ElBcSgF51IK5JstbkPi-33" value="" style="endArrow=classic;html=1;rounded=0;" parent="1" edge="1">
          <mxGeometry width="50" height="50" relative="1" as="geometry">
            <mxPoint x="580" y="650" as="sourcePoint" />
            <mxPoint x="500" y="650" as="targetPoint" />
          </mxGeometry>
        </mxCell>
        <mxCell id="_ElBcSgF51IK5JstbkPi-34" value="LIst" style="text;html=1;align=center;verticalAlign=middle;whiteSpace=wrap;rounded=0;" parent="1" vertex="1">
          <mxGeometry x="610" y="625" width="60" height="30" as="geometry" />
        </mxCell>
        <mxCell id="_ElBcSgF51IK5JstbkPi-35" value="" style="ellipse;whiteSpace=wrap;html=1;" parent="1" vertex="1">
          <mxGeometry x="380" y="705" width="120" height="80" as="geometry" />
        </mxCell>
        <mxCell id="_ElBcSgF51IK5JstbkPi-36" value="" style="endArrow=none;html=1;rounded=0;" parent="1" edge="1">
          <mxGeometry width="50" height="50" relative="1" as="geometry">
            <mxPoint x="270" y="725" as="sourcePoint" />
            <mxPoint x="270" y="565" as="targetPoint" />
          </mxGeometry>
        </mxCell>
        <mxCell id="_ElBcSgF51IK5JstbkPi-37" value="" style="endArrow=classic;html=1;rounded=0;" parent="1" edge="1">
          <mxGeometry width="50" height="50" relative="1" as="geometry">
            <mxPoint x="270" y="725" as="sourcePoint" />
            <mxPoint x="380" y="725" as="targetPoint" />
          </mxGeometry>
        </mxCell>
        <mxCell id="_ElBcSgF51IK5JstbkPi-38" value="" style="endArrow=none;html=1;rounded=0;" parent="1" edge="1">
          <mxGeometry width="50" height="50" relative="1" as="geometry">
            <mxPoint x="260" y="745" as="sourcePoint" />
            <mxPoint x="380" y="745" as="targetPoint" />
          </mxGeometry>
        </mxCell>
        <mxCell id="_ElBcSgF51IK5JstbkPi-39" value="" style="endArrow=classic;html=1;rounded=0;entryX=0.675;entryY=0.967;entryDx=0;entryDy=0;entryPerimeter=0;" parent="1" target="_ElBcSgF51IK5JstbkPi-14" edge="1">
          <mxGeometry width="50" height="50" relative="1" as="geometry">
            <mxPoint x="260" y="745" as="sourcePoint" />
            <mxPoint x="310" y="695" as="targetPoint" />
          </mxGeometry>
        </mxCell>
        <mxCell id="_ElBcSgF51IK5JstbkPi-40" value="Create Data" style="text;html=1;align=center;verticalAlign=middle;whiteSpace=wrap;rounded=0;" parent="1" vertex="1">
          <mxGeometry x="410" y="725" width="60" height="30" as="geometry" />
        </mxCell>
        <mxCell id="_ElBcSgF51IK5JstbkPi-41" value="" style="endArrow=classic;html=1;rounded=0;exitX=0.917;exitY=0.238;exitDx=0;exitDy=0;exitPerimeter=0;" parent="1" source="_ElBcSgF51IK5JstbkPi-35" edge="1">
          <mxGeometry width="50" height="50" relative="1" as="geometry">
            <mxPoint x="500" y="725" as="sourcePoint" />
            <mxPoint x="580" y="725" as="targetPoint" />
          </mxGeometry>
        </mxCell>
        <mxCell id="_ElBcSgF51IK5JstbkPi-42" value="" style="endArrow=none;html=1;rounded=0;" parent="1" edge="1">
          <mxGeometry width="50" height="50" relative="1" as="geometry">
            <mxPoint x="590" y="715" as="sourcePoint" />
            <mxPoint x="700" y="715" as="targetPoint" />
          </mxGeometry>
        </mxCell>
        <mxCell id="_ElBcSgF51IK5JstbkPi-43" value="" style="endArrow=none;html=1;rounded=0;" parent="1" edge="1">
          <mxGeometry width="50" height="50" relative="1" as="geometry">
            <mxPoint x="590" y="765" as="sourcePoint" />
            <mxPoint x="700" y="765" as="targetPoint" />
          </mxGeometry>
        </mxCell>
        <mxCell id="_ElBcSgF51IK5JstbkPi-44" value="" style="endArrow=classic;html=1;rounded=0;" parent="1" edge="1">
          <mxGeometry width="50" height="50" relative="1" as="geometry">
            <mxPoint x="580" y="744.5" as="sourcePoint" />
            <mxPoint x="500" y="744.5" as="targetPoint" />
          </mxGeometry>
        </mxCell>
        <mxCell id="_ElBcSgF51IK5JstbkPi-45" value="Create Data" style="text;html=1;align=center;verticalAlign=middle;whiteSpace=wrap;rounded=0;" parent="1" vertex="1">
          <mxGeometry x="610" y="725" width="60" height="30" as="geometry" />
        </mxCell>
        <mxCell id="_ElBcSgF51IK5JstbkPi-46" value="" style="ellipse;whiteSpace=wrap;html=1;" parent="1" vertex="1">
          <mxGeometry x="380" y="815" width="120" height="80" as="geometry" />
        </mxCell>
        <mxCell id="_ElBcSgF51IK5JstbkPi-47" value="" style="endArrow=none;html=1;rounded=0;" parent="1" edge="1">
          <mxGeometry width="50" height="50" relative="1" as="geometry">
            <mxPoint x="250" y="835" as="sourcePoint" />
            <mxPoint x="250" y="565" as="targetPoint" />
          </mxGeometry>
        </mxCell>
        <mxCell id="_ElBcSgF51IK5JstbkPi-48" value="" style="endArrow=classic;html=1;rounded=0;entryX=0.083;entryY=0.25;entryDx=0;entryDy=0;entryPerimeter=0;" parent="1" target="_ElBcSgF51IK5JstbkPi-46" edge="1">
          <mxGeometry width="50" height="50" relative="1" as="geometry">
            <mxPoint x="250" y="835" as="sourcePoint" />
            <mxPoint x="300" y="785" as="targetPoint" />
          </mxGeometry>
        </mxCell>
        <mxCell id="_ElBcSgF51IK5JstbkPi-49" value="" style="endArrow=classic;html=1;rounded=0;" parent="1" edge="1">
          <mxGeometry width="50" height="50" relative="1" as="geometry">
            <mxPoint x="240" y="855" as="sourcePoint" />
            <mxPoint x="240" y="565" as="targetPoint" />
          </mxGeometry>
        </mxCell>
        <mxCell id="_ElBcSgF51IK5JstbkPi-50" value="" style="endArrow=classic;html=1;rounded=0;" parent="1" edge="1">
          <mxGeometry width="50" height="50" relative="1" as="geometry">
            <mxPoint x="500" y="845" as="sourcePoint" />
            <mxPoint x="580" y="845" as="targetPoint" />
          </mxGeometry>
        </mxCell>
        <mxCell id="_ElBcSgF51IK5JstbkPi-51" value="" style="endArrow=none;html=1;rounded=0;entryX=0;entryY=0.5;entryDx=0;entryDy=0;" parent="1" target="_ElBcSgF51IK5JstbkPi-46" edge="1">
          <mxGeometry width="50" height="50" relative="1" as="geometry">
            <mxPoint x="240" y="855" as="sourcePoint" />
            <mxPoint x="290" y="805" as="targetPoint" />
          </mxGeometry>
        </mxCell>
        <mxCell id="_ElBcSgF51IK5JstbkPi-52" value="" style="endArrow=none;html=1;rounded=0;" parent="1" edge="1">
          <mxGeometry width="50" height="50" relative="1" as="geometry">
            <mxPoint x="590" y="835" as="sourcePoint" />
            <mxPoint x="700" y="835" as="targetPoint" />
          </mxGeometry>
        </mxCell>
        <mxCell id="_ElBcSgF51IK5JstbkPi-53" value="" style="endArrow=none;html=1;rounded=0;" parent="1" edge="1">
          <mxGeometry width="50" height="50" relative="1" as="geometry">
            <mxPoint x="590" y="885" as="sourcePoint" />
            <mxPoint x="700" y="885" as="targetPoint" />
          </mxGeometry>
        </mxCell>
        <mxCell id="_ElBcSgF51IK5JstbkPi-54" value="" style="endArrow=classic;html=1;rounded=0;" parent="1" edge="1">
          <mxGeometry width="50" height="50" relative="1" as="geometry">
            <mxPoint x="580" y="865" as="sourcePoint" />
            <mxPoint x="500" y="865" as="targetPoint" />
          </mxGeometry>
        </mxCell>
        <mxCell id="_ElBcSgF51IK5JstbkPi-55" value="Read Data" style="text;html=1;align=center;verticalAlign=middle;whiteSpace=wrap;rounded=0;" parent="1" vertex="1">
          <mxGeometry x="610" y="845" width="60" height="30" as="geometry" />
        </mxCell>
        <mxCell id="_ElBcSgF51IK5JstbkPi-56" value="Read Data" style="text;html=1;align=center;verticalAlign=middle;whiteSpace=wrap;rounded=0;" parent="1" vertex="1">
          <mxGeometry x="410" y="840" width="60" height="30" as="geometry" />
        </mxCell>
        <mxCell id="_ElBcSgF51IK5JstbkPi-57" value="" style="ellipse;whiteSpace=wrap;html=1;" parent="1" vertex="1">
          <mxGeometry x="380" y="925" width="120" height="80" as="geometry" />
        </mxCell>
        <mxCell id="_ElBcSgF51IK5JstbkPi-58" value="" style="endArrow=none;html=1;rounded=0;" parent="1" edge="1">
          <mxGeometry width="50" height="50" relative="1" as="geometry">
            <mxPoint x="230" y="945" as="sourcePoint" />
            <mxPoint x="230" y="565" as="targetPoint" />
          </mxGeometry>
        </mxCell>
        <mxCell id="_ElBcSgF51IK5JstbkPi-59" value="" style="endArrow=classic;html=1;rounded=0;entryX=0.083;entryY=0.25;entryDx=0;entryDy=0;entryPerimeter=0;" parent="1" target="_ElBcSgF51IK5JstbkPi-57" edge="1">
          <mxGeometry width="50" height="50" relative="1" as="geometry">
            <mxPoint x="230" y="945" as="sourcePoint" />
            <mxPoint x="380" y="945" as="targetPoint" />
          </mxGeometry>
        </mxCell>
        <mxCell id="_ElBcSgF51IK5JstbkPi-60" value="" style="endArrow=none;html=1;rounded=0;" parent="1" edge="1">
          <mxGeometry width="50" height="50" relative="1" as="geometry">
            <mxPoint x="220" y="965" as="sourcePoint" />
            <mxPoint x="380" y="965" as="targetPoint" />
          </mxGeometry>
        </mxCell>
        <mxCell id="_ElBcSgF51IK5JstbkPi-61" value="" style="endArrow=classic;html=1;rounded=0;" parent="1" edge="1">
          <mxGeometry width="50" height="50" relative="1" as="geometry">
            <mxPoint x="219.13" y="965" as="sourcePoint" />
            <mxPoint x="219.13" y="565" as="targetPoint" />
          </mxGeometry>
        </mxCell>
        <mxCell id="_ElBcSgF51IK5JstbkPi-62" value="Update Data" style="text;html=1;align=center;verticalAlign=middle;whiteSpace=wrap;rounded=0;" parent="1" vertex="1">
          <mxGeometry x="410" y="945" width="60" height="30" as="geometry" />
        </mxCell>
        <mxCell id="_ElBcSgF51IK5JstbkPi-63" value="" style="endArrow=classic;html=1;rounded=0;" parent="1" edge="1">
          <mxGeometry width="50" height="50" relative="1" as="geometry">
            <mxPoint x="500" y="955" as="sourcePoint" />
            <mxPoint x="580" y="955" as="targetPoint" />
          </mxGeometry>
        </mxCell>
        <mxCell id="_ElBcSgF51IK5JstbkPi-64" value="" style="endArrow=none;html=1;rounded=0;" parent="1" edge="1">
          <mxGeometry width="50" height="50" relative="1" as="geometry">
            <mxPoint x="590" y="945" as="sourcePoint" />
            <mxPoint x="700" y="945" as="targetPoint" />
          </mxGeometry>
        </mxCell>
        <mxCell id="_ElBcSgF51IK5JstbkPi-65" value="" style="endArrow=classic;html=1;rounded=0;" parent="1" edge="1">
          <mxGeometry width="50" height="50" relative="1" as="geometry">
            <mxPoint x="580" y="985" as="sourcePoint" />
            <mxPoint x="500" y="985" as="targetPoint" />
          </mxGeometry>
        </mxCell>
        <mxCell id="_ElBcSgF51IK5JstbkPi-66" value="" style="endArrow=none;html=1;rounded=0;" parent="1" edge="1">
          <mxGeometry width="50" height="50" relative="1" as="geometry">
            <mxPoint x="590" y="995" as="sourcePoint" />
            <mxPoint x="700" y="995" as="targetPoint" />
          </mxGeometry>
        </mxCell>
        <mxCell id="_ElBcSgF51IK5JstbkPi-67" value="Update Data" style="text;html=1;align=center;verticalAlign=middle;whiteSpace=wrap;rounded=0;" parent="1" vertex="1">
          <mxGeometry x="610" y="950" width="60" height="30" as="geometry" />
        </mxCell>
        <mxCell id="_ElBcSgF51IK5JstbkPi-68" value="&lt;div&gt;&lt;span style=&quot;text-wrap-mode: wrap;&quot;&gt;Task Flow&lt;/span&gt;&lt;/div&gt;" style="text;html=1;align=center;verticalAlign=middle;resizable=0;points=[];autosize=1;strokeColor=none;fillColor=none;" parent="1" vertex="1">
          <mxGeometry x="604" y="526" width="80" height="30" as="geometry" />
        </mxCell>
        <mxCell id="_ElBcSgF51IK5JstbkPi-69" value="" style="endArrow=classic;html=1;rounded=0;" parent="1" edge="1">
          <mxGeometry width="50" height="50" relative="1" as="geometry">
            <mxPoint x="189" y="1065" as="sourcePoint" />
            <mxPoint x="189.13" y="565" as="targetPoint" />
          </mxGeometry>
        </mxCell>
        <mxCell id="_ElBcSgF51IK5JstbkPi-70" value="" style="endArrow=classic;html=1;rounded=0;entryX=0.007;entryY=0.379;entryDx=0;entryDy=0;entryPerimeter=0;" parent="1" edge="1">
          <mxGeometry width="50" height="50" relative="1" as="geometry">
            <mxPoint x="200" y="1035" as="sourcePoint" />
            <mxPoint x="389.99999999999994" y="1035.32" as="targetPoint" />
            <Array as="points">
              <mxPoint x="284.15999999999997" y="1035" />
            </Array>
          </mxGeometry>
        </mxCell>
        <mxCell id="_ElBcSgF51IK5JstbkPi-71" value="Delete Data" style="ellipse;whiteSpace=wrap;html=1;" parent="1" vertex="1">
          <mxGeometry x="385" y="1015" width="120" height="80" as="geometry" />
        </mxCell>
        <mxCell id="_ElBcSgF51IK5JstbkPi-72" value="" style="endArrow=none;html=1;rounded=0;" parent="1" edge="1">
          <mxGeometry width="50" height="50" relative="1" as="geometry">
            <mxPoint x="190" y="1065" as="sourcePoint" />
            <mxPoint x="385" y="1065" as="targetPoint" />
            <Array as="points">
              <mxPoint x="305" y="1065" />
            </Array>
          </mxGeometry>
        </mxCell>
        <mxCell id="_ElBcSgF51IK5JstbkPi-73" value="" style="endArrow=none;html=1;rounded=0;" parent="1" edge="1">
          <mxGeometry width="50" height="50" relative="1" as="geometry">
            <mxPoint x="200" y="1035" as="sourcePoint" />
            <mxPoint x="200" y="565" as="targetPoint" />
          </mxGeometry>
        </mxCell>
        <mxCell id="_ElBcSgF51IK5JstbkPi-74" value="" style="endArrow=classic;html=1;rounded=0;" parent="1" edge="1">
          <mxGeometry width="50" height="50" relative="1" as="geometry">
            <mxPoint x="505" y="1039.57" as="sourcePoint" />
            <mxPoint x="585" y="1039.57" as="targetPoint" />
          </mxGeometry>
        </mxCell>
        <mxCell id="_ElBcSgF51IK5JstbkPi-75" value="" style="endArrow=none;html=1;rounded=0;" parent="1" edge="1">
          <mxGeometry width="50" height="50" relative="1" as="geometry">
            <mxPoint x="595" y="1029.57" as="sourcePoint" />
            <mxPoint x="705" y="1029.57" as="targetPoint" />
          </mxGeometry>
        </mxCell>
        <mxCell id="_ElBcSgF51IK5JstbkPi-76" value="" style="endArrow=classic;html=1;rounded=0;" parent="1" edge="1">
          <mxGeometry width="50" height="50" relative="1" as="geometry">
            <mxPoint x="585" y="1069.57" as="sourcePoint" />
            <mxPoint x="505" y="1069.57" as="targetPoint" />
          </mxGeometry>
        </mxCell>
        <mxCell id="_ElBcSgF51IK5JstbkPi-77" value="" style="endArrow=none;html=1;rounded=0;" parent="1" edge="1">
          <mxGeometry width="50" height="50" relative="1" as="geometry">
            <mxPoint x="595" y="1079.57" as="sourcePoint" />
            <mxPoint x="705" y="1079.57" as="targetPoint" />
          </mxGeometry>
        </mxCell>
        <mxCell id="_ElBcSgF51IK5JstbkPi-78" value="Delete Data" style="text;html=1;align=center;verticalAlign=middle;whiteSpace=wrap;rounded=0;" parent="1" vertex="1">
          <mxGeometry x="615" y="1034.57" width="60" height="30" as="geometry" />
        </mxCell>
        <mxCell id="_ElBcSgF51IK5JstbkPi-80" value="Actor" style="shape=umlActor;verticalLabelPosition=bottom;verticalAlign=top;html=1;outlineConnect=0;" parent="1" vertex="1">
          <mxGeometry x="170" y="1400" width="30" height="60" as="geometry" />
        </mxCell>
        <mxCell id="_ElBcSgF51IK5JstbkPi-81" value="" style="ellipse;whiteSpace=wrap;html=1;" parent="1" vertex="1">
          <mxGeometry x="535" y="1310" width="120" height="56" as="geometry" />
        </mxCell>
        <mxCell id="_ElBcSgF51IK5JstbkPi-87" value="Task Flow" style="text;html=1;align=center;verticalAlign=middle;whiteSpace=wrap;rounded=0;" parent="1" vertex="1">
          <mxGeometry x="565" y="1323" width="60" height="30" as="geometry" />
        </mxCell>
        <mxCell id="_ElBcSgF51IK5JstbkPi-90" value="" style="ellipse;whiteSpace=wrap;html=1;" parent="1" vertex="1">
          <mxGeometry x="535" y="1380" width="120" height="40" as="geometry" />
        </mxCell>
        <mxCell id="_ElBcSgF51IK5JstbkPi-91" value="Create Data" style="text;html=1;align=center;verticalAlign=middle;whiteSpace=wrap;rounded=0;" parent="1" vertex="1">
          <mxGeometry x="565" y="1385" width="60" height="30" as="geometry" />
        </mxCell>
        <mxCell id="_ElBcSgF51IK5JstbkPi-92" value="" style="ellipse;whiteSpace=wrap;html=1;" parent="1" vertex="1">
          <mxGeometry x="535" y="1430" width="120" height="40" as="geometry" />
        </mxCell>
        <mxCell id="_ElBcSgF51IK5JstbkPi-93" value="Read Data" style="text;html=1;align=center;verticalAlign=middle;whiteSpace=wrap;rounded=0;" parent="1" vertex="1">
          <mxGeometry x="570" y="1435" width="60" height="30" as="geometry" />
        </mxCell>
        <mxCell id="_ElBcSgF51IK5JstbkPi-94" value="" style="ellipse;whiteSpace=wrap;html=1;" parent="1" vertex="1">
          <mxGeometry x="535" y="1490" width="120" height="40" as="geometry" />
        </mxCell>
        <mxCell id="_ElBcSgF51IK5JstbkPi-95" value="Update Data" style="text;html=1;align=center;verticalAlign=middle;whiteSpace=wrap;rounded=0;" parent="1" vertex="1">
          <mxGeometry x="565" y="1495" width="60" height="30" as="geometry" />
        </mxCell>
        <mxCell id="_ElBcSgF51IK5JstbkPi-96" value="" style="ellipse;whiteSpace=wrap;html=1;" parent="1" vertex="1">
          <mxGeometry x="535" y="1560" width="120" height="40" as="geometry" />
        </mxCell>
        <mxCell id="_ElBcSgF51IK5JstbkPi-97" value="Delete Data" style="text;html=1;align=center;verticalAlign=middle;whiteSpace=wrap;rounded=0;" parent="1" vertex="1">
          <mxGeometry x="565" y="1565" width="60" height="30" as="geometry" />
        </mxCell>
        <mxCell id="_ElBcSgF51IK5JstbkPi-98" value="" style="endArrow=classic;html=1;rounded=0;entryX=0;entryY=0.5;entryDx=0;entryDy=0;" parent="1" target="_ElBcSgF51IK5JstbkPi-81" edge="1">
          <mxGeometry width="50" height="50" relative="1" as="geometry">
            <mxPoint x="205" y="1430" as="sourcePoint" />
            <mxPoint x="420" y="1337" as="targetPoint" />
          </mxGeometry>
        </mxCell>
        <mxCell id="_ElBcSgF51IK5JstbkPi-99" value="" style="endArrow=classic;html=1;rounded=0;entryX=0;entryY=0.5;entryDx=0;entryDy=0;" parent="1" target="_ElBcSgF51IK5JstbkPi-90" edge="1">
          <mxGeometry width="50" height="50" relative="1" as="geometry">
            <mxPoint x="205" y="1430" as="sourcePoint" />
            <mxPoint x="265" y="1430" as="targetPoint" />
          </mxGeometry>
        </mxCell>
        <mxCell id="_ElBcSgF51IK5JstbkPi-100" value="" style="endArrow=classic;html=1;rounded=0;entryX=0;entryY=0.5;entryDx=0;entryDy=0;" parent="1" target="_ElBcSgF51IK5JstbkPi-92" edge="1">
          <mxGeometry width="50" height="50" relative="1" as="geometry">
            <mxPoint x="205" y="1430" as="sourcePoint" />
            <mxPoint x="550" y="1435" as="targetPoint" />
          </mxGeometry>
        </mxCell>
        <mxCell id="_ElBcSgF51IK5JstbkPi-101" value="" style="endArrow=classic;html=1;rounded=0;entryX=0;entryY=0.5;entryDx=0;entryDy=0;" parent="1" target="_ElBcSgF51IK5JstbkPi-94" edge="1">
          <mxGeometry width="50" height="50" relative="1" as="geometry">
            <mxPoint x="205" y="1430" as="sourcePoint" />
            <mxPoint x="555" y="1540" as="targetPoint" />
          </mxGeometry>
        </mxCell>
        <mxCell id="_ElBcSgF51IK5JstbkPi-102" value="" style="endArrow=classic;html=1;rounded=0;entryX=0.067;entryY=0.625;entryDx=0;entryDy=0;entryPerimeter=0;" parent="1" target="_ElBcSgF51IK5JstbkPi-96" edge="1">
          <mxGeometry width="50" height="50" relative="1" as="geometry">
            <mxPoint x="205" y="1430" as="sourcePoint" />
            <mxPoint x="435" y="1560" as="targetPoint" />
          </mxGeometry>
        </mxCell>
        <mxCell id="_ElBcSgF51IK5JstbkPi-103" value="" style="rounded=0;whiteSpace=wrap;html=1;" parent="1" vertex="1">
          <mxGeometry x="340" y="1950" width="120" height="40" as="geometry" />
        </mxCell>
        <mxCell id="_ElBcSgF51IK5JstbkPi-104" value="Task Flow" style="text;html=1;align=center;verticalAlign=middle;whiteSpace=wrap;rounded=0;" parent="1" vertex="1">
          <mxGeometry x="370" y="1955" width="60" height="30" as="geometry" />
        </mxCell>
        <mxCell id="_ElBcSgF51IK5JstbkPi-105" value="" style="endArrow=none;html=1;rounded=0;" parent="1" edge="1">
          <mxGeometry width="50" height="50" relative="1" as="geometry">
            <mxPoint x="399.38" y="2040" as="sourcePoint" />
            <mxPoint x="399.38" y="1990" as="targetPoint" />
          </mxGeometry>
        </mxCell>
        <mxCell id="_ElBcSgF51IK5JstbkPi-106" value="" style="rhombus;whiteSpace=wrap;html=1;" parent="1" vertex="1">
          <mxGeometry x="360" y="2040" width="80" height="80" as="geometry" />
        </mxCell>
        <mxCell id="_ElBcSgF51IK5JstbkPi-107" value="" style="endArrow=classic;html=1;rounded=0;" parent="1" edge="1">
          <mxGeometry width="50" height="50" relative="1" as="geometry">
            <mxPoint x="399.38" y="2120" as="sourcePoint" />
            <mxPoint x="399.38" y="2160" as="targetPoint" />
          </mxGeometry>
        </mxCell>
        <mxCell id="_ElBcSgF51IK5JstbkPi-111" value="" style="rounded=0;whiteSpace=wrap;html=1;" parent="1" vertex="1">
          <mxGeometry x="343" y="2150" width="120" height="40" as="geometry" />
        </mxCell>
        <mxCell id="_ElBcSgF51IK5JstbkPi-112" value="List" style="text;html=1;align=center;verticalAlign=middle;whiteSpace=wrap;rounded=0;" parent="1" vertex="1">
          <mxGeometry x="370" y="2155" width="60" height="30" as="geometry" />
        </mxCell>
        <mxCell id="_ElBcSgF51IK5JstbkPi-113" value="" style="endArrow=none;html=1;rounded=0;entryX=0.5;entryY=0;entryDx=0;entryDy=0;" parent="1" target="_ElBcSgF51IK5JstbkPi-103" edge="1">
          <mxGeometry width="50" height="50" relative="1" as="geometry">
            <mxPoint x="400" y="1920" as="sourcePoint" />
            <mxPoint x="410" y="1920" as="targetPoint" />
          </mxGeometry>
        </mxCell>
        <mxCell id="_ElBcSgF51IK5JstbkPi-114" value="" style="endArrow=none;html=1;rounded=0;" parent="1" edge="1">
          <mxGeometry width="50" height="50" relative="1" as="geometry">
            <mxPoint x="540" y="1920" as="sourcePoint" />
            <mxPoint x="270" y="1920" as="targetPoint" />
          </mxGeometry>
        </mxCell>
        <mxCell id="_ElBcSgF51IK5JstbkPi-115" value="" style="endArrow=none;html=1;rounded=0;" parent="1" edge="1">
          <mxGeometry width="50" height="50" relative="1" as="geometry">
            <mxPoint x="270" y="1900" as="sourcePoint" />
            <mxPoint x="270" y="1920" as="targetPoint" />
          </mxGeometry>
        </mxCell>
        <mxCell id="_ElBcSgF51IK5JstbkPi-116" value="" style="ellipse;whiteSpace=wrap;html=1;" parent="1" vertex="1">
          <mxGeometry x="233" y="1850" width="80" height="50" as="geometry" />
        </mxCell>
        <mxCell id="_ElBcSgF51IK5JstbkPi-117" value="" style="ellipse;whiteSpace=wrap;html=1;" parent="1" vertex="1">
          <mxGeometry x="420" y="1850" width="80" height="50" as="geometry" />
        </mxCell>
        <mxCell id="_ElBcSgF51IK5JstbkPi-118" value="" style="endArrow=none;html=1;rounded=0;" parent="1" edge="1">
          <mxGeometry width="50" height="50" relative="1" as="geometry">
            <mxPoint x="360" y="1888" as="sourcePoint" />
            <mxPoint x="360" y="1918" as="targetPoint" />
          </mxGeometry>
        </mxCell>
        <mxCell id="_ElBcSgF51IK5JstbkPi-119" value="" style="ellipse;whiteSpace=wrap;html=1;" parent="1" vertex="1">
          <mxGeometry x="500" y="1853" width="80" height="50" as="geometry" />
        </mxCell>
        <mxCell id="_ElBcSgF51IK5JstbkPi-120" value="" style="ellipse;whiteSpace=wrap;html=1;" parent="1" vertex="1">
          <mxGeometry x="320" y="1850" width="80" height="50" as="geometry" />
        </mxCell>
        <mxCell id="_ElBcSgF51IK5JstbkPi-121" value="Create Data" style="text;html=1;align=center;verticalAlign=middle;whiteSpace=wrap;rounded=0;" parent="1" vertex="1">
          <mxGeometry x="243" y="1860" width="60" height="30" as="geometry" />
        </mxCell>
        <mxCell id="_ElBcSgF51IK5JstbkPi-122" value="Update Data" style="text;html=1;align=center;verticalAlign=middle;whiteSpace=wrap;rounded=0;" parent="1" vertex="1">
          <mxGeometry x="430" y="1860" width="60" height="30" as="geometry" />
        </mxCell>
        <mxCell id="_ElBcSgF51IK5JstbkPi-123" value="Read Data" style="text;html=1;align=center;verticalAlign=middle;whiteSpace=wrap;rounded=0;" parent="1" vertex="1">
          <mxGeometry x="333" y="1860" width="60" height="30" as="geometry" />
        </mxCell>
        <mxCell id="_ElBcSgF51IK5JstbkPi-124" value="Delete Data" style="text;html=1;align=center;verticalAlign=middle;whiteSpace=wrap;rounded=0;" parent="1" vertex="1">
          <mxGeometry x="510" y="1863" width="60" height="30" as="geometry" />
        </mxCell>
        <mxCell id="_ElBcSgF51IK5JstbkPi-128" value="" style="endArrow=none;html=1;rounded=0;" parent="1" edge="1">
          <mxGeometry width="50" height="50" relative="1" as="geometry">
            <mxPoint x="459" y="1900" as="sourcePoint" />
            <mxPoint x="458.75" y="1918" as="targetPoint" />
          </mxGeometry>
        </mxCell>
        <mxCell id="_ElBcSgF51IK5JstbkPi-129" value="" style="endArrow=none;html=1;rounded=0;" parent="1" edge="1">
          <mxGeometry width="50" height="50" relative="1" as="geometry">
            <mxPoint x="540" y="1900" as="sourcePoint" />
            <mxPoint x="540" y="1918" as="targetPoint" />
          </mxGeometry>
        </mxCell>
        <mxCell id="_ElBcSgF51IK5JstbkPi-130" value="Manage&lt;br&gt;Database" style="text;html=1;align=center;verticalAlign=middle;whiteSpace=wrap;rounded=0;" parent="1" vertex="1">
          <mxGeometry x="370" y="2065" width="60" height="30" as="geometry" />
        </mxCell>
        <mxCell id="_ElBcSgF51IK5JstbkPi-176" value="" style="endArrow=none;html=1;rounded=0;entryX=0.5;entryY=0;entryDx=0;entryDy=0;" parent="1" edge="1">
          <mxGeometry width="50" height="50" relative="1" as="geometry">
            <mxPoint x="402" y="2190" as="sourcePoint" />
            <mxPoint x="402" y="2220" as="targetPoint" />
          </mxGeometry>
        </mxCell>
        <mxCell id="_ElBcSgF51IK5JstbkPi-177" value="" style="endArrow=none;html=1;rounded=0;endSize=11;targetPerimeterSpacing=-38;" parent="1" edge="1">
          <mxGeometry width="50" height="50" relative="1" as="geometry">
            <mxPoint x="540.5" y="2220" as="sourcePoint" />
            <mxPoint x="260.5" y="2220" as="targetPoint" />
          </mxGeometry>
        </mxCell>
        <mxCell id="_ElBcSgF51IK5JstbkPi-178" value="" style="endArrow=none;html=1;rounded=0;" parent="1" edge="1">
          <mxGeometry width="50" height="50" relative="1" as="geometry">
            <mxPoint x="260.07" y="2220" as="sourcePoint" />
            <mxPoint x="260.07" y="2240" as="targetPoint" />
          </mxGeometry>
        </mxCell>
        <mxCell id="_ElBcSgF51IK5JstbkPi-179" value="" style="ellipse;whiteSpace=wrap;html=1;" parent="1" vertex="1">
          <mxGeometry x="220.5" y="2240" width="80" height="50" as="geometry" />
        </mxCell>
        <mxCell id="_ElBcSgF51IK5JstbkPi-180" value="" style="ellipse;whiteSpace=wrap;html=1;" parent="1" vertex="1">
          <mxGeometry x="407.5" y="2240" width="80" height="50" as="geometry" />
        </mxCell>
        <mxCell id="_ElBcSgF51IK5JstbkPi-181" value="" style="endArrow=none;html=1;rounded=0;" parent="1" edge="1">
          <mxGeometry width="50" height="50" relative="1" as="geometry">
            <mxPoint x="347.29" y="2220" as="sourcePoint" />
            <mxPoint x="347.29" y="2250" as="targetPoint" />
          </mxGeometry>
        </mxCell>
        <mxCell id="_ElBcSgF51IK5JstbkPi-182" value="" style="ellipse;whiteSpace=wrap;html=1;" parent="1" vertex="1">
          <mxGeometry x="505.5" y="2240" width="80" height="50" as="geometry" />
        </mxCell>
        <mxCell id="_ElBcSgF51IK5JstbkPi-183" value="" style="ellipse;whiteSpace=wrap;html=1;" parent="1" vertex="1">
          <mxGeometry x="307.5" y="2240" width="80" height="50" as="geometry" />
        </mxCell>
        <mxCell id="_ElBcSgF51IK5JstbkPi-184" value="Create Data" style="text;html=1;align=center;verticalAlign=middle;whiteSpace=wrap;rounded=0;" parent="1" vertex="1">
          <mxGeometry x="230.5" y="2250" width="60" height="30" as="geometry" />
        </mxCell>
        <mxCell id="_ElBcSgF51IK5JstbkPi-185" value="Update Data" style="text;html=1;align=center;verticalAlign=middle;whiteSpace=wrap;rounded=0;" parent="1" vertex="1">
          <mxGeometry x="417.5" y="2250" width="60" height="30" as="geometry" />
        </mxCell>
        <mxCell id="_ElBcSgF51IK5JstbkPi-186" value="Read Data" style="text;html=1;align=center;verticalAlign=middle;whiteSpace=wrap;rounded=0;" parent="1" vertex="1">
          <mxGeometry x="320.5" y="2250" width="60" height="30" as="geometry" />
        </mxCell>
        <mxCell id="_ElBcSgF51IK5JstbkPi-187" value="Delete Data" style="text;html=1;align=center;verticalAlign=middle;whiteSpace=wrap;rounded=0;" parent="1" vertex="1">
          <mxGeometry x="515.5" y="2250" width="60" height="30" as="geometry" />
        </mxCell>
        <mxCell id="_ElBcSgF51IK5JstbkPi-188" value="" style="endArrow=none;html=1;rounded=0;" parent="1" edge="1">
          <mxGeometry width="50" height="50" relative="1" as="geometry">
            <mxPoint x="450.53999999999996" y="2222" as="sourcePoint" />
            <mxPoint x="450.28999999999996" y="2240" as="targetPoint" />
          </mxGeometry>
        </mxCell>
        <mxCell id="_ElBcSgF51IK5JstbkPi-189" value="" style="endArrow=none;html=1;rounded=0;" parent="1" edge="1">
          <mxGeometry width="50" height="50" relative="1" as="geometry">
            <mxPoint x="539.93" y="2222" as="sourcePoint" />
            <mxPoint x="539.93" y="2240" as="targetPoint" />
          </mxGeometry>
        </mxCell>
        <mxCell id="HZlaqHQV2IzDVMo0pT9T-1" value="DFD-0" style="rounded=0;whiteSpace=wrap;html=1;fillColor=#d5e8d4;strokeColor=#82b366;" parent="1" vertex="1">
          <mxGeometry x="375" y="70" width="120" height="60" as="geometry" />
        </mxCell>
        <mxCell id="HZlaqHQV2IzDVMo0pT9T-2" value="DFD-1&lt;div&gt;(User)&lt;/div&gt;" style="rounded=0;whiteSpace=wrap;html=1;fillColor=#d5e8d4;strokeColor=#82b366;" parent="1" vertex="1">
          <mxGeometry x="380" y="390" width="120" height="60" as="geometry" />
        </mxCell>
        <mxCell id="HZlaqHQV2IzDVMo0pT9T-4" value="Use-case Diagram&lt;div&gt;(Admin)&lt;/div&gt;" style="rounded=0;whiteSpace=wrap;html=1;fillColor=#d5e8d4;strokeColor=#82b366;" parent="1" vertex="1">
          <mxGeometry x="350" y="1170" width="120" height="60" as="geometry" />
        </mxCell>
        <mxCell id="HZlaqHQV2IzDVMo0pT9T-5" value="Use-case Diagram&lt;div&gt;(Admin)&lt;/div&gt;" style="rounded=0;whiteSpace=wrap;html=1;fillColor=#d5e8d4;strokeColor=#82b366;" parent="1" vertex="1">
          <mxGeometry x="343" y="1730" width="120" height="60" as="geometry" />
        </mxCell>
        <mxCell id="GbCZ-hDtJSLbm_xuqzP1-19" style="edgeStyle=orthogonalEdgeStyle;rounded=0;orthogonalLoop=1;jettySize=auto;html=1;exitX=1;exitY=0.75;exitDx=0;exitDy=0;" parent="1" source="GbCZ-hDtJSLbm_xuqzP1-1" target="_ElBcSgF51IK5JstbkPi-106" edge="1">
          <mxGeometry relative="1" as="geometry" />
        </mxCell>
        <mxCell id="GbCZ-hDtJSLbm_xuqzP1-1" value="Create Data" style="rounded=0;whiteSpace=wrap;html=1;" parent="1" vertex="1">
          <mxGeometry x="80" y="2000" width="120" height="40" as="geometry" />
        </mxCell>
        <mxCell id="GbCZ-hDtJSLbm_xuqzP1-20" style="edgeStyle=orthogonalEdgeStyle;rounded=0;orthogonalLoop=1;jettySize=auto;html=1;exitX=1;exitY=0.25;exitDx=0;exitDy=0;entryX=0;entryY=0.5;entryDx=0;entryDy=0;" parent="1" source="GbCZ-hDtJSLbm_xuqzP1-3" target="_ElBcSgF51IK5JstbkPi-106" edge="1">
          <mxGeometry relative="1" as="geometry">
            <mxPoint x="310" y="2060" as="targetPoint" />
          </mxGeometry>
        </mxCell>
        <mxCell id="GbCZ-hDtJSLbm_xuqzP1-3" value="Read Data" style="rounded=0;whiteSpace=wrap;html=1;" parent="1" vertex="1">
          <mxGeometry x="80" y="2130" width="120" height="40" as="geometry" />
        </mxCell>
        <mxCell id="GbCZ-hDtJSLbm_xuqzP1-17" style="edgeStyle=orthogonalEdgeStyle;rounded=0;orthogonalLoop=1;jettySize=auto;html=1;exitX=0;exitY=0.75;exitDx=0;exitDy=0;entryX=1;entryY=0.5;entryDx=0;entryDy=0;" parent="1" source="GbCZ-hDtJSLbm_xuqzP1-4" target="_ElBcSgF51IK5JstbkPi-106" edge="1">
          <mxGeometry relative="1" as="geometry" />
        </mxCell>
        <mxCell id="GbCZ-hDtJSLbm_xuqzP1-4" value="Update Data" style="rounded=0;whiteSpace=wrap;html=1;" parent="1" vertex="1">
          <mxGeometry x="604" y="2000" width="120" height="40" as="geometry" />
        </mxCell>
        <mxCell id="GbCZ-hDtJSLbm_xuqzP1-21" style="edgeStyle=orthogonalEdgeStyle;rounded=0;orthogonalLoop=1;jettySize=auto;html=1;exitX=0;exitY=0.25;exitDx=0;exitDy=0;entryX=1;entryY=0.5;entryDx=0;entryDy=0;" parent="1" source="GbCZ-hDtJSLbm_xuqzP1-5" target="_ElBcSgF51IK5JstbkPi-106" edge="1">
          <mxGeometry relative="1" as="geometry" />
        </mxCell>
        <mxCell id="GbCZ-hDtJSLbm_xuqzP1-5" value="Delete Data" style="rounded=0;whiteSpace=wrap;html=1;" parent="1" vertex="1">
          <mxGeometry x="604" y="2130" width="120" height="40" as="geometry" />
        </mxCell>
      </root>
    </mxGraphModel>
  </diagram>
</mxfile>
